<svg xmlns="http://www.w3.org/2000/svg" viewBox="0 0 140.4 45.1">
	<style type="text/css">

		.st0{fill:#FFFFFF;}
		.st1{fill:#F69220;}

	</style>
	<path class="st0" d="M65.2 0v6.9h-9.5c-3.5 0-6.4 1.3-8.7 3.1 -2.2 1.7-3.3 4-3.3 6.3 0 2.3 1.1 4.5 3.3 6.2 2.2 1.9 5.1 2.8 8.7 2.8H65h10.2V0H65.2zM65.2 21.5h-4.7c-2 0-3.6-0.5-4.8-1.6 -1.2-1-1.8-2.2-1.8-3.6 0-1.3 0.5-2.7 1.8-3.6 1.3-1 2.9-1.2 4.9-1.2h4.7V21.5z"/>
	<rect class="st1" width="10" height="4.6"/>
	<rect y="6.9" class="st0" width="9.9" height="18.4"/>
	<path class="st0" d="M94.4 10.7h10.8V6.9H89.5c-3.5 0-6.4 1.3-8.7 3.1 -2.2 1.7-3.2 4-3.2 6.3 0 2.3 1.1 4.5 3.2 6.2 2.3 1.9 5.2 2.8 8.7 2.8h15.6v-3.8H94.4c-5.1 0-5.9-2.5-6.2-3.1h16.9v-4.6H88.2C88.6 13.1 89.8 10.7 94.4 10.7L94.4 10.7z"/>
	<path class="st0" d="M30 6.9H13.1v18.4h10.2V11.5h5.6c2.9-0.1 2.9 2.3 2.9 2.9v10.9h9.7V13.1C41.4 11.8 41.4 6.9 30 6.9L30 6.9z"/>
	<polygon class="st0" points="140 6.9 128.3 6.9 123.8 11.3 119.1 6.9 107.4 6.9 117.8 16.3 107.4 25.3 119.1 25.3 123.8 21.4 128.3 25.3 140 25.3 129.6 16.3 "/>
	<path class="st0" d="M10.9 45h-4l-4.2-8H2.6c0.1 1.3 0.1 2.2 0.1 2.9V45H0V33.6h4l4.2 7.9h0c-0.1-1.2-0.1-2.1-0.1-2.8v-5.2h2.8V45z"/>
	<path class="st0" d="M15.6 45V33.6h3.1V45H15.6z"/>
	<path class="st0" d="M34.3 45h-4l-4.2-8H26c0.1 1.3 0.1 2.2 0.1 2.9V45h-2.7V33.6h4l4.2 7.9h0c-0.1-1.2-0.1-2.1-0.1-2.8v-5.2h2.8V45z"/>
	<path class="st0" d="M44.1 35.9c-0.7 0-1.3 0.3-1.7 0.9 -0.4 0.6-0.6 1.4-0.6 2.5 0 2.2 0.8 3.3 2.5 3.3 0.5 0 1-0.1 1.5-0.2 0.5-0.1 1-0.3 1.4-0.5v2.6c-1 0.4-2 0.6-3.2 0.6 -1.7 0-3-0.5-4-1.5 -0.9-1-1.4-2.4-1.4-4.3 0-1.2 0.2-2.2 0.7-3.1 0.4-0.9 1.1-1.6 1.9-2.1 0.8-0.5 1.8-0.7 2.9-0.7 1.2 0 2.4 0.3 3.5 0.8l-0.9 2.4c-0.4-0.2-0.8-0.4-1.3-0.5C45 36 44.5 35.9 44.1 35.9z"/>
	<path class="st0" d="M59.1 41.5c0 0.7-0.2 1.3-0.5 1.9 -0.4 0.5-0.9 1-1.6 1.3 -0.7 0.3-1.5 0.5-2.4 0.5 -0.8 0-1.4-0.1-1.9-0.2s-1.1-0.3-1.6-0.6v-2.8c0.6 0.3 1.2 0.5 1.8 0.7 0.6 0.2 1.2 0.3 1.8 0.3 0.5 0 0.8-0.1 1-0.2 0.2-0.2 0.3-0.4 0.3-0.6 0-0.2 0-0.3-0.1-0.4s-0.2-0.2-0.4-0.4c-0.2-0.1-0.7-0.4-1.5-0.7 -0.7-0.3-1.3-0.7-1.7-1 -0.4-0.3-0.6-0.7-0.8-1.1 -0.2-0.4-0.3-0.9-0.3-1.5 0-1.1 0.4-1.9 1.1-2.5 0.8-0.6 1.8-0.9 3.2-0.9 1.2 0 2.4 0.3 3.6 0.8l-0.9 2.4c-1.1-0.5-2-0.7-2.8-0.7 -0.4 0-0.7 0.1-0.9 0.2 -0.2 0.1-0.3 0.3-0.3 0.5 0 0.2 0.1 0.4 0.3 0.6 0.2 0.2 0.9 0.5 1.9 1 1 0.4 1.7 0.9 2.1 1.4S59.1 40.7 59.1 41.5z"/>
	<path class="st0" d="M74.4 45l-2.3-8.2H72c0.1 1.4 0.2 2.5 0.2 3.3v5h-2.7V33.6h4.1l2.4 8.1H76l2.3-8.1h4.1V45h-2.8v-5c0-0.3 0-0.5 0-0.9 0-0.3 0-1.1 0.1-2.3h-0.1L77.4 45H74.4z"/>
	<path class="st0" d="M94.2 45l-0.6-2.1h-3.7L89.3 45h-3.4l3.7-11.5h4.1L97.6 45H94.2zM90.1 32.6v-0.2c0.8-0.9 1.3-1.4 1.5-1.7 0.2-0.2 0.4-0.5 0.5-0.7h3.3v0.2c-0.4 0.3-1 0.8-1.7 1.3 -0.7 0.5-1.3 0.9-1.7 1.1H90.1zM93 40.3l-0.5-1.9c-0.1-0.4-0.3-1-0.4-1.6 -0.2-0.7-0.3-1.1-0.3-1.4 0 0.3-0.1 0.7-0.3 1.3 -0.1 0.6-0.4 1.8-0.9 3.6H93z"/>
	<path class="st0" d="M108.5 41.5c0 0.7-0.2 1.3-0.5 1.9 -0.4 0.5-0.9 1-1.6 1.3 -0.7 0.3-1.5 0.5-2.4 0.5 -0.8 0-1.4-0.1-1.9-0.2s-1.1-0.3-1.6-0.6v-2.8c0.6 0.3 1.2 0.5 1.8 0.7 0.6 0.2 1.2 0.3 1.8 0.3 0.5 0 0.8-0.1 1-0.2 0.2-0.2 0.3-0.4 0.3-0.6 0-0.2 0-0.3-0.1-0.4s-0.2-0.2-0.4-0.4c-0.2-0.1-0.7-0.4-1.5-0.7 -0.7-0.3-1.3-0.7-1.7-1 -0.4-0.3-0.6-0.7-0.8-1.1 -0.2-0.4-0.3-0.9-0.3-1.5 0-1.1 0.4-1.9 1.1-2.5 0.8-0.6 1.8-0.9 3.2-0.9 1.2 0 2.4 0.3 3.6 0.8l-0.9 2.4c-1.1-0.5-2-0.7-2.8-0.7 -0.4 0-0.7 0.1-0.9 0.2 -0.2 0.1-0.3 0.3-0.3 0.5 0 0.2 0.1 0.4 0.3 0.6 0.2 0.2 0.9 0.5 1.9 1 1 0.4 1.7 0.9 2.1 1.4S108.5 40.7 108.5 41.5z"/>
	<path class="st0" d="M112.5 45V33.6h3.1V45H112.5z"/>
	<path class="st0" d="M130.1 45h-3.5l-2.3-4.4 -0.9 0.5V45h-3.1V33.6h3.1v5c0.2-0.3 0.5-0.8 0.9-1.5l2.4-3.5h3.4l-3.6 5.1L130.1 45z"/>
	<path class="st0" d="M140.4 44.9h-8.1V43h8.1V44.9z"/>
</svg>
